<svg xmlns="http://www.w3.org/2000/svg" xmlns:xlink="http://www.w3.org/1999/xlink" version="1.1" id="Layer_1" x="0px" y="0px" width="5000px" height="1278px" viewBox="0 0 5000 1278" enable-background="new 0 0 5000 1278" xml:space="preserve">
<g>
	<path fill="#f7941e" d="M2731.34,146.51c20.391-0.33,41.08,3.46,59.391,12.66c15.18,7.59,28.529,19.01,37.84,33.26   c9.279,14.07,14.42,30.72,15.279,47.52c0.971,19.83-2.85,40.07-12.18,57.68c-7.23,13.73-17.78,25.68-30.52,34.54   c-15.891,11.13-34.891,17.37-54.131,19.19c-21.119,1.97-42.89-0.55-62.489-8.89c-15.95-6.73-30.271-17.45-40.811-31.21   c-26.22-33.82-27.33-84.51-3.14-119.71c9.14-13.39,21.729-24.34,36.1-31.82C2693.46,150.91,2712.45,146.78,2731.34,146.51z"/>
	<g>
		<path fill="#f7941e" d="M248.25,149.94c112.58-0.01,225.16,0,337.73-0.01c23.68,0.1,47.38-0.42,71.03,1.05    c44.32,2.63,88.53,10.52,130.36,25.66c33.39,12.09,65.19,28.93,93.17,50.86c25.58,19.98,47.85,44.22,65.4,71.52    c16.66,25.82,29.1,54.28,37.38,83.84C992.83,416.69,996.97,451.9,997,487c0.09,44.87-6.73,90.06-22.94,132.02    c-12.27,31.9-30.05,61.72-52.7,87.34c-27.97,31.81-63.17,56.909-101.57,74.59c3.31,6.53,7.86,12.36,11.66,18.62    c60.54,93.47,121.08,186.939,181.62,280.42c-71.561,0.01-143.13,0.029-214.69-0.01C742.88,993.64,687.35,907.32,631.82,821    c-61.271,0-122.55,0-183.82,0c-0.01,86.33,0.01,172.67,0,259c-66.59,0-133.17,0.01-199.76-0.01    C248.25,769.971,248.23,459.96,248.25,149.94z M448.02,325.44c-0.04,108.01-0.02,216.03-0.01,324.05c37.99,0.01,75.98,0,113.97,0    c21.99-0.18,43.98,0.43,65.96-0.45c25.13-1.2,50.34-5.38,73.89-14.45c27.2-10.32,51.9-28.35,67.85-52.92    c19.13-28.95,25.71-64.45,24.97-98.69c-0.35-22.56-3.93-45.27-12.4-66.26c-10.77-27.36-31.07-50.72-56.59-65.291    c-33.94-19.649-73.9-25.66-112.6-25.95C558.04,325.39,503.03,325.47,448.02,325.44z"/>
	</g>
	<path fill="#f7941e" d="M1045.01,149.94c250.74-0.01,501.49-0.02,752.23,0c0.02,58.5,0.02,117,0,175.49   c-92.07,0.03-184.15,0.01-276.22,0.01c-0.05,251.52,0,503.041-0.02,754.56c-66.59,0-133.17,0.01-199.76-0.01   c0.01-251.51,0.01-503.02,0-754.53c-92.08-0.05-184.16,0.01-276.23-0.02C1045,266.94,1044.99,208.44,1045.01,149.94z"/>
	<path fill="#f7941e" d="M1904.25,149.94c66.58-0.01,133.16-0.01,199.74,0c0.02,310.02,0.01,620.041,0.01,930.06   c-66.59,0-133.17,0.01-199.76-0.01C1904.25,769.971,1904.23,459.96,1904.25,149.94z"/>
	<path fill="#f7941e" d="M3927.42,208.53c40.95-16.24,85.8-20.51,129.5-17.71c24.061,1.64,48.061,5.689,70.99,13.31   c14.38,4.89,28.38,11.28,40.8,20.12c-15.56,44.53-31.11,89.06-46.71,133.58c-16.609-12.12-36.52-19.43-56.91-21.69   c-18.45-1.92-37.84-0.88-54.87,7.04c-12.899,5.931-23.41,16.51-29.729,29.17c-8.51,16.83-10.87,35.99-11.021,54.63   c-0.069,9.33-0.01,18.67-0.03,28c52.381,0.05,104.75-0.02,157.13,0.04c-0.009,47.24,0,94.48,0,141.73   c-50.859,0.02-101.71-0.01-152.56,0.01c-0.029,159.75,0,319.49-0.01,479.24c-59.141,0.05-118.28-0.08-177.41,0.061   c-0.23-159.761-0.021-319.53-0.109-479.291c-31.49-0.03-62.98-0.01-94.471-0.01c-0.02-47.25-0.01-94.51-0.01-141.76   c31.5-0.02,63,0.03,94.5-0.02c0.03-23.35-0.641-46.8,2.51-70.01c5.04-40.73,18.92-81.06,44.2-113.76   C3864.74,243,3894.48,221.49,3927.42,208.53z"/>
	<path fill="#f7941e" d="M3241.3,453.36c42.23-18.38,88.931-25.09,134.76-23.04c40.95,1.83,82.091,11.38,118,31.57   c29.98,16.7,55.66,40.92,74.3,69.72c20.9,32,33.341,68.9,39.761,106.41c4.13,24.11,5.86,48.59,5.88,73.05   c-0.01,121.64,0.01,243.279,0,364.93c-59.2-0.08-118.41,0.181-177.59-0.13c0.199-110.601,0.02-221.21,0.09-331.81   c0.069-21.78-1.391-43.73-6.71-64.931c-4.31-17.14-11.16-33.87-21.87-48.05c-9.32-12.45-21.66-22.61-35.68-29.34   c-17.16-8.28-36.301-11.7-55.24-12.16c-21.95-0.49-44.21,2.53-64.67,10.71c-27.23,10.62-50.061,31.39-63.91,57.05   c-18.45,33.62-23.34,72.79-22.91,110.62c0,102.68-0.01,205.351,0,308.021c-59.17,0.039-118.34,0.01-177.51,0.02c0-212,0-424,0-636   c56.52,0,113.05-0.02,169.57,0.02c0,24.56-0.021,49.12,0.01,73.68C3180.54,487.67,3209.46,467.1,3241.3,453.36z"/>
	<g>
		<path fill="#f7941e" d="M4477.3,430.5c42.49-2.11,85.431,2.13,126.36,13.92c58.439,16.64,112.539,49.52,152.47,95.53    c21.569,24.69,39.03,52.94,51.7,83.18c15.029,35.79,23.34,74.261,25.529,112.98c2.34,41.8-1.899,84.11-13.92,124.279    c-17.279,58.581-52.029,112.041-99.42,150.7c-24.92,20.479-53.07,36.93-82.971,48.99c-36.909,14.9-76.389,23.109-116.089,25.3    c-42.17,2.32-84.8-1.63-125.53-12.94c-59.41-16.3-114.57-49.159-155.35-95.56c-21.87-24.729-39.61-53.069-52.49-83.46    c-14.87-34.97-23.29-72.56-25.75-110.449c-2.8-43.07,1.48-86.75,14.04-128.101c18.03-60.25,54.689-114.88,104.319-153.62    C4336.029,457.11,4406.6,433.82,4477.3,430.5z M4489.311,581.46c-12.49,0.63-24.921,2.62-36.921,6.12    c-28.87,8.24-54.989,25.71-73.55,49.32c-21.939,27.571-33.45,62.27-36.7,97.071c-3.42,37.46,0.61,76.289,16.03,110.879    c12.311,27.82,32.7,52.28,58.85,68.051c32.87,20.09,73.34,25.93,111.01,19.199c29.42-5.22,57.281-19.51,78.101-41.02    c24.359-24.78,38.78-57.99,44.49-91.98c5.72-35.16,4.449-71.76-5.53-106.05c-9.55-32.77-28.779-63.24-56.59-83.45    C4560.199,588.65,4524.23,579.56,4489.311,581.46z"/>
	</g>
	<path fill="#f7941e" d="M2645,440c59.17,0,118.33,0,177.49,0c0.02,212,0.04,424-0.01,636c-59.16-0.01-118.32,0.01-177.48,0   C2645,864,2645,652,2645,440z"/>
	<path fill="#f7941e" d="M2408.38,867.49c25.44-0.78,51.44,5.94,72.27,20.82c15.74,11.12,28.15,26.85,35.32,44.739   c13.73,34.77,9.99,76.561-11.569,107.381c-10.511,15.139-25.07,27.38-41.69,35.319c-20.26,9.75-43.39,13.069-65.64,10.33   c-27.11-3.21-53.101-16.47-70.811-37.35c-29.87-34.58-34.29-88.01-12.2-127.69c13.46-24.21,37.38-41.79,63.95-49.021   C2387.89,869.23,2398.12,867.78,2408.38,867.49z"/>
</g>
</svg>
